<?xml version="1.0" encoding="UTF-8"?>
<svg id="Camada_1" data-name="Camada 1" xmlns="http://www.w3.org/2000/svg" viewBox="0 0 283.46 135.73">
  <defs>
    <style>
      .cls-1 {
        fill: #fff;
      }

      .cls-1, .cls-2 {
        stroke-width: 0px;
      }

      .cls-2 {
        fill: #0000;
      }
    </style>
  </defs>
  <rect class="cls-2" x="-.31" y=".79" width="283.46" height="135.73"/>
  <g>
    <polygon class="cls-1" points="112.64 58.71 102.49 68.65 100.32 68.65 105.04 58.71 112.64 58.71"/>
    <path class="cls-1" d="m109.66,88.27c0-2.29-.83-4.26-2.49-5.92-1.66-1.65-3.64-2.48-5.94-2.48s-4.35.82-6.01,2.45c-1.66,1.64-2.49,3.62-2.49,5.96s.83,4.33,2.49,5.99c1.66,1.65,3.66,2.48,6.01,2.48s4.34-.83,5.98-2.48c1.64-1.66,2.46-3.65,2.46-5.99m8.63,0c0,4.76-1.65,8.8-4.95,12.12-3.3,3.31-7.34,4.98-12.11,4.98s-8.87-1.65-12.18-4.94c-3.3-3.3-4.95-7.35-4.95-12.16s1.66-8.79,4.98-12.09c3.32-3.29,7.37-4.95,12.14-4.95s8.81,1.65,12.11,4.95c3.3,3.3,4.95,7.33,4.95,12.09m-36.36-8.43c-2.34,0-4.34.82-6.01,2.46-1.66,1.64-2.49,3.62-2.49,5.97v16.14h-8.63v-16.14c0-4.76,1.66-8.79,4.98-12.09,3.32-3.29,7.37-4.95,12.14-4.95v8.61Zm-25.49-9.44c0-2.34-.82-4.34-2.46-5.98-1.64-1.64-3.63-2.46-5.97-2.46s-4.35.82-6.01,2.46c-1.66,1.64-2.49,3.63-2.49,5.98s.83,4.34,2.49,5.98c1.66,1.64,3.66,2.46,6.01,2.46s4.33-.82,5.97-2.46c1.64-1.64,2.46-3.63,2.46-5.98m8.63,0c0,4.77-1.65,8.81-4.95,12.12-3.3,3.3-7.34,4.95-12.11,4.95-3.07,0-5.9-.75-8.5-2.24v19.63h-8.63v-34.46c0-4.82,1.65-8.86,4.96-12.14,3.3-3.29,7.36-4.92,12.17-4.92s8.81,1.65,12.11,4.95c3.3,3.3,4.95,7.34,4.95,12.12"/>
    <path class="cls-1" d="m237.06,88.39c0-3-1.22-5.33-3.64-6.99-1.41-.99-3.03-1.48-4.86-1.48-2.98,0-5.29,1.19-6.9,3.59-1.02,1.5-1.53,3.12-1.53,4.88,0,2.95,1.22,5.26,3.64,6.93,1.49,1.03,3.09,1.54,4.79,1.54,2.34,0,4.35-.82,6.01-2.47,1.66-1.64,2.49-3.64,2.49-6m15.53,16.08h-9.17l-1.81-4.99c-3.41,4.01-7.75,6.01-13.05,6.01-4.77,0-8.81-1.66-12.11-4.99-3.3-3.33-4.95-7.35-4.95-12.08,0-3.62,1.02-6.89,3.07-9.81,2.04-2.92,4.77-5,8.18-6.23,2-.72,3.96-1.09,5.88-1.09,3.62,0,6.89,1.03,9.81,3.1,2.92,2.07,4.99,4.8,6.23,8.22l7.92,21.86Zm-54.17-16.14c0-2.29-.83-4.26-2.49-5.93-1.66-1.65-3.64-2.48-5.94-2.48s-4.35.82-6.01,2.45c-1.66,1.64-2.49,3.62-2.49,5.96s.83,4.33,2.49,5.99c1.66,1.65,3.67,2.48,6.01,2.48s4.33-.83,5.98-2.48c1.64-1.66,2.46-3.65,2.46-5.99m8.63-.01c0,4.76-1.65,8.81-4.95,12.14-3.3,3.31-7.34,4.98-12.11,4.98s-8.87-1.65-12.18-4.94c-3.3-3.3-4.95-7.35-4.95-12.16s1.66-8.79,4.98-12.09c3.33-3.3,7.37-4.95,12.15-4.95,3.02,0,5.84.73,8.44,2.17v-19.56h8.63v34.42Zm-39.85,16.15h-8.63v-33.18h8.63v33.18Zm.77-40.53c0,1.45-.49,2.67-1.47,3.67-.98,1-2.19,1.5-3.64,1.5s-2.67-.5-3.67-1.5c-1-1-1.5-2.23-1.5-3.67s.5-2.67,1.5-3.65c1-.98,2.22-1.47,3.67-1.47s2.61.5,3.61,1.5c1,1,1.5,2.21,1.5,3.61m-10.96-10.04l-22.43,50.57-20.39-50.57h10.23l10.54,30.56,11.82-30.56h10.23Z"/>
    <path class="cls-1" d="m111.66,38.13v8.65c-.9.42-1.92.75-3.06.98-1.14.23-2.31.34-3.5.34-1.88,0-3.51-.36-4.89-1.07-1.38-.71-2.44-1.73-3.17-3.06-.73-1.33-1.1-2.91-1.1-4.74s.37-3.34,1.1-4.68c.73-1.34,1.78-2.37,3.12-3.09,1.35-.72,2.93-1.08,4.74-1.08,1.26,0,2.44.16,3.54.49,1.1.33,2,.78,2.68,1.35l-1.4,3.18c-.8-.52-1.57-.9-2.3-1.13-.73-.23-1.52-.34-2.35-.34-1.55,0-2.71.43-3.47,1.3-.76.87-1.14,2.2-1.14,3.99s.4,3.21,1.19,4.1c.79.89,2,1.33,3.64,1.33.78,0,1.56-.08,2.33-.24v-3.21h-3.04v-3.09h7.08Z"/>
    <path class="cls-1" d="m131.1,47.88h-4.95l-2.99-5.51c-.38-.64-.97-.96-1.79-.96h-1.37v6.47h-4.43v-17.27h8.23c2.09,0,3.66.45,4.71,1.36,1.05.91,1.58,2.22,1.58,3.93,0,1.31-.36,2.41-1.08,3.32-.72.91-1.73,1.51-3.04,1.82,1,.21,1.79.86,2.38,1.93l2.74,4.9Zm-5.87-10.31c.43-.31.65-.82.65-1.52s-.22-1.24-.65-1.55c-.43-.32-1.15-.48-2.14-.48h-3.14v4.02h3.14c1,0,1.71-.15,2.14-.47"/>
    <path class="cls-1" d="m135.72,46.19c-1.3-1.27-1.95-3.14-1.95-5.58v-9.99h4.41v10.16c0,1.24.28,2.2.83,2.87.56.67,1.36,1,2.4,1s1.85-.33,2.4-1c.55-.67.83-1.62.83-2.87v-10.16h4.43v9.99c0,2.43-.66,4.29-1.97,5.57-1.31,1.28-3.21,1.92-5.69,1.92s-4.4-.64-5.69-1.91"/>
    <path class="cls-1" d="m153.1,30.61h8.35c1.91,0,3.4.49,4.46,1.46,1.06.97,1.59,2.32,1.59,4.05s-.54,3.06-1.6,4.04c-1.07.98-2.55,1.47-4.45,1.47h-3.85v6.25h-4.51v-17.27Zm7.74,7.64c.83,0,1.45-.17,1.85-.51.4-.34.6-.87.6-1.59s-.2-1.25-.6-1.6c-.4-.35-1.02-.53-1.85-.53h-3.23v4.24h3.23Z"/>
    <path class="cls-1" d="m174.32,47.01c-1.3-.73-2.3-1.75-3-3.09-.7-1.33-1.05-2.89-1.05-4.69s.35-3.36,1.05-4.69c.7-1.33,1.7-2.36,3-3.07,1.3-.72,2.83-1.08,4.59-1.08s3.29.36,4.59,1.08c1.3.72,2.29,1.74,2.99,3.07.69,1.33,1.04,2.89,1.04,4.69s-.35,3.36-1.05,4.69c-.7,1.33-1.7,2.36-3,3.09-1.3.73-2.82,1.09-4.57,1.09s-3.29-.36-4.59-1.09m7.65-3.75c.73-.92,1.1-2.27,1.1-4.03s-.37-3.1-1.11-4.02c-.74-.91-1.76-1.37-3.05-1.37s-2.33.45-3.06,1.36c-.73.91-1.1,2.25-1.1,4.03s.37,3.13,1.1,4.04c.73.91,1.75,1.37,3.06,1.37s2.33-.46,3.06-1.38"/>
  </g>
</svg>