<?xml version="1.0" standalone="no"?>
<svg xmlns:xlink="http://www.w3.org/1999/xlink" id="wave" style="transform:rotate(0deg); transition: 0.3s" viewBox="0 0 1440 140" version="1.1" xmlns="http://www.w3.org/2000/svg"><defs><linearGradient id="sw-gradient-0" x1="0" x2="0" y1="1" y2="0"><stop stop-color="rgba(0, 89, 91, 1)" offset="0%"/><stop stop-color="rgba(0, 170, 155, 1)" offset="100%"/></linearGradient></defs><path style="transform:translate(0, 0px); opacity:1" fill="url(#sw-gradient-0)" d="M0,14L80,16.3C160,19,320,23,480,39.7C640,56,800,84,960,79.3C1120,75,1280,37,1440,21C1600,5,1760,9,1920,11.7C2080,14,2240,14,2400,30.3C2560,47,2720,79,2880,81.7C3040,84,3200,56,3360,53.7C3520,51,3680,75,3840,70C4000,65,4160,33,4320,18.7C4480,5,4640,9,4800,14C4960,19,5120,23,5280,23.3C5440,23,5600,19,5760,23.3C5920,28,6080,42,6240,53.7C6400,65,6560,75,6720,86.3C6880,98,7040,112,7200,107.3C7360,103,7520,79,7680,77C7840,75,8000,93,8160,102.7C8320,112,8480,112,8640,109.7C8800,107,8960,103,9120,100.3C9280,98,9440,98,9600,93.3C9760,89,9920,79,10080,81.7C10240,84,10400,98,10560,95.7C10720,93,10880,75,11040,63C11200,51,11360,47,11440,44.3L11520,42L11520,140L11440,140C11360,140,11200,140,11040,140C10880,140,10720,140,10560,140C10400,140,10240,140,10080,140C9920,140,9760,140,9600,140C9440,140,9280,140,9120,140C8960,140,8800,140,8640,140C8480,140,8320,140,8160,140C8000,140,7840,140,7680,140C7520,140,7360,140,7200,140C7040,140,6880,140,6720,140C6560,140,6400,140,6240,140C6080,140,5920,140,5760,140C5600,140,5440,140,5280,140C5120,140,4960,140,4800,140C4640,140,4480,140,4320,140C4160,140,4000,140,3840,140C3680,140,3520,140,3360,140C3200,140,3040,140,2880,140C2720,140,2560,140,2400,140C2240,140,2080,140,1920,140C1760,140,1600,140,1440,140C1280,140,1120,140,960,140C800,140,640,140,480,140C320,140,160,140,80,140L0,140Z"/><defs><linearGradient id="sw-gradient-1" x1="0" x2="0" y1="1" y2="0"><stop stop-color="rgba(0, 89, 91, 1)" offset="0%"/><stop stop-color="rgba(0, 170, 155, 1)" offset="100%"/></linearGradient></defs><path style="transform:translate(0, 50px); opacity:0.9" fill="url(#sw-gradient-1)" d="M0,84L80,91C160,98,320,112,480,102.7C640,93,800,61,960,39.7C1120,19,1280,9,1440,9.3C1600,9,1760,19,1920,23.3C2080,28,2240,28,2400,32.7C2560,37,2720,47,2880,46.7C3040,47,3200,37,3360,35C3520,33,3680,37,3840,49C4000,61,4160,79,4320,88.7C4480,98,4640,98,4800,93.3C4960,89,5120,79,5280,74.7C5440,70,5600,70,5760,74.7C5920,79,6080,89,6240,84C6400,79,6560,61,6720,56C6880,51,7040,61,7200,63C7360,65,7520,61,7680,58.3C7840,56,8000,56,8160,67.7C8320,79,8480,103,8640,102.7C8800,103,8960,79,9120,70C9280,61,9440,65,9600,72.3C9760,79,9920,89,10080,84C10240,79,10400,61,10560,51.3C10720,42,10880,42,11040,44.3C11200,47,11360,51,11440,53.7L11520,56L11520,140L11440,140C11360,140,11200,140,11040,140C10880,140,10720,140,10560,140C10400,140,10240,140,10080,140C9920,140,9760,140,9600,140C9440,140,9280,140,9120,140C8960,140,8800,140,8640,140C8480,140,8320,140,8160,140C8000,140,7840,140,7680,140C7520,140,7360,140,7200,140C7040,140,6880,140,6720,140C6560,140,6400,140,6240,140C6080,140,5920,140,5760,140C5600,140,5440,140,5280,140C5120,140,4960,140,4800,140C4640,140,4480,140,4320,140C4160,140,4000,140,3840,140C3680,140,3520,140,3360,140C3200,140,3040,140,2880,140C2720,140,2560,140,2400,140C2240,140,2080,140,1920,140C1760,140,1600,140,1440,140C1280,140,1120,140,960,140C800,140,640,140,480,140C320,140,160,140,80,140L0,140Z"/></svg>